<svg width="16" height="16" viewBox="0 0 16 16" fill="none" xmlns="http://www.w3.org/2000/svg">
<g id="edit-01" clip-path="url(#clip0_7859_767)">
<path id="Icon" d="M1.9172 12.0771C1.94783 11.8015 1.96314 11.6636 2.00485 11.5348C2.04185 11.4205 2.09413 11.3117 2.16026 11.2114C2.23481 11.0984 2.33287 11.0003 2.52899 10.8042L11.3332 2.00004C12.0696 1.26366 13.2635 1.26366 13.9999 2.00004C14.7362 2.73642 14.7362 3.93033 13.9999 4.66671L5.19565 13.4709C4.99953 13.667 4.90147 13.7651 4.78843 13.8396C4.68814 13.9058 4.57936 13.958 4.46507 13.995C4.33624 14.0367 4.19841 14.0521 3.92275 14.0827L1.6665 14.3334L1.9172 12.0771Z" stroke="#F63D68" stroke-width="2" stroke-linecap="round" stroke-linejoin="round"/>
</g>
<defs>
<clipPath id="clip0_7859_767">
<rect width="16" height="16" fill="white"/>
</clipPath>
</defs>
</svg>
