<svg width="32" height="32" viewBox="0 0 32 32" fill="none" xmlns="http://www.w3.org/2000/svg">
<g style="mix-blend-mode:multiply">
<rect width="32" height="32" rx="16" fill="#FEE4E2"/>
<path d="M19.3333 15.3333V13.3333C19.3333 11.4924 17.8409 10 16 10C14.1591 10 12.6667 11.4924 12.6667 13.3333V15.3333M13.2 22H18.8C19.9201 22 20.4802 22 20.908 21.782C21.2843 21.5903 21.5903 21.2843 21.782 20.908C22 20.4802 22 19.9201 22 18.8V18.5333C22 17.4132 22 16.8532 21.782 16.4254C21.5903 16.049 21.2843 15.7431 20.908 15.5513C20.4802 15.3333 19.9201 15.3333 18.8 15.3333H13.2C12.0799 15.3333 11.5198 15.3333 11.092 15.5513C10.7157 15.7431 10.4097 16.049 10.218 16.4254C10 16.8532 10 17.4132 10 18.5333V18.8C10 19.9201 10 20.4802 10.218 20.908C10.4097 21.2843 10.7157 21.5903 11.092 21.782C11.5198 22 12.0799 22 13.2 22Z" stroke="#E31B54" stroke-width="1.33333" stroke-linecap="round" stroke-linejoin="round"/>
</g>
</svg>
